<svg width="161" height="164" viewBox="0 0 161 164" fill="none" xmlns="http://www.w3.org/2000/svg">
<path d="M8.88838 135.936C9.99771 130.987 10.9364 125.312 11.7044 118.912C12.5577 112.512 13.283 105.771 13.8804 98.688C14.4777 91.6053 14.9897 84.5653 15.4164 77.568C15.843 70.5707 16.1417 64 16.3124 57.856C16.483 51.6267 16.5684 46.208 16.5684 41.6C16.5684 39.296 16.5684 37.248 16.5684 35.456C16.5684 33.5787 16.483 32.0853 16.3124 30.976C16.227 29.952 16.483 29.184 17.0804 28.672C17.763 28.0747 18.4457 27.776 19.1284 27.776C20.4084 27.776 21.0484 28.3733 21.0484 29.568C21.0484 33.2373 20.9204 38.0587 20.6644 44.032C20.4084 49.92 20.067 56.4053 19.6404 63.488C19.299 70.4853 18.8297 77.6107 18.2324 84.864C17.7204 92.1173 17.1657 98.944 16.5684 105.344C15.971 111.659 15.3737 117.077 14.7764 121.6C14.179 126.208 13.5817 129.323 12.9844 130.944C12.5577 132.309 12.003 133.461 11.3204 134.4C10.6377 135.424 10.083 135.936 9.65638 135.936C9.57105 135.936 9.40038 135.936 9.14438 135.936C8.97371 136.021 8.88838 136.021 8.88838 135.936ZM93.3724 122.88C92.4337 122.88 91.9644 122.368 91.9644 121.344C91.9644 120.832 92.135 120.363 92.4764 119.936C93.2444 118.912 94.439 117.163 96.0604 114.688C97.6817 112.299 99.5164 109.525 101.564 106.368C103.698 103.125 105.874 99.7973 108.092 96.384C110.311 92.8853 112.402 89.6 114.364 86.528C116.412 83.3707 118.162 80.64 119.612 78.336C121.063 76.032 122.087 74.496 122.684 73.728C122.087 72.448 121.063 70.528 119.612 67.968C118.247 65.3227 116.668 62.3787 114.876 59.136C113.084 55.8933 111.292 52.608 109.5 49.28C107.708 45.8667 106.087 42.752 104.636 39.936C103.186 37.0347 102.119 34.7307 101.436 33.024C101.095 32.256 100.924 31.4453 100.924 30.592C100.924 29.568 101.18 29.056 101.692 29.056C102.204 29.056 102.759 29.6107 103.356 30.72C104.636 33.024 106.3 35.7547 108.348 38.912C110.396 41.984 112.572 45.184 114.876 48.512C117.266 51.84 119.527 55.0827 121.66 58.24C123.794 61.312 125.543 64.0427 126.908 66.432C128.359 68.8213 129.212 70.6133 129.468 71.808C129.383 72.9173 128.615 74.7093 127.164 77.184C125.714 79.6587 123.836 82.56 121.532 85.888C119.228 89.216 116.711 92.7147 113.98 96.384C111.335 99.968 108.732 103.424 106.172 106.752C103.612 110.08 101.351 113.024 99.3884 115.584C97.4257 118.229 96.0177 120.149 95.1644 121.344C94.7377 122.368 94.1404 122.88 93.3724 122.88Z" fill="black"/>
<path d="M94.5372 67.4849C94.5372 65.361 93.4237 63.3706 91.5261 62.0458C91.6086 61.7066 91.6496 61.3808 91.6496 61.0601C91.6496 58.4145 89.3768 56.2172 86.424 55.8388C86.4918 55.5348 86.524 55.2367 86.524 54.9397C86.524 52.1231 83.9451 49.8218 80.7145 49.6756C80.6614 49.6681 80.6077 49.6618 80.552 49.6618C80.5252 49.6618 80.499 49.6647 80.4715 49.6652C80.4446 49.6647 80.4184 49.6618 80.3909 49.6618C80.0835 49.6618 79.774 49.6855 79.4472 49.7346C78.8793 47.1433 76.2568 45.2135 73.1127 45.2135C69.5478 45.2135 66.6473 47.7101 66.6473 50.7792V88.8649C66.6473 92.7492 70.3183 95.9085 74.8304 95.9085C77.8241 95.9085 80.5413 94.5143 81.9764 92.2997C82.2979 92.3598 82.6067 92.3968 82.9168 92.4141C84.8654 92.521 86.763 91.9715 88.237 90.8582C89.711 89.7448 90.593 88.2039 90.7206 86.5191C90.7736 85.8171 90.6823 85.1128 90.4501 84.4172C92.9981 82.8624 94.4956 80.4005 94.4956 77.7029C94.4956 75.7471 93.6774 73.8693 92.1832 72.3735C93.6868 71.0631 94.5372 69.3101 94.5372 67.4849ZM92.4833 77.704C92.4833 79.717 91.4214 81.5635 89.6003 82.7994C88.2524 80.9528 85.8615 79.7736 83.2725 79.7736C82.7168 79.7736 82.2657 80.1619 82.2657 80.6403C82.2657 81.1186 82.7168 81.5069 83.2725 81.5069C85.5151 81.5069 87.5577 82.7162 88.3619 84.516C88.6371 85.1446 88.7592 85.7807 88.7116 86.4076C88.6189 87.6302 87.9793 88.7481 86.9093 89.5559C85.8394 90.3642 84.4653 90.7657 83.0483 90.6848C82.6496 90.6623 82.2375 90.5884 81.7508 90.4526C81.2541 90.3128 80.7165 90.5242 80.5117 90.9379C79.5418 92.9046 77.3113 94.1757 74.8297 94.1757C71.4279 94.1757 68.6604 91.7936 68.6604 88.8654V50.7798C68.6604 48.6669 70.6573 46.9474 73.112 46.9474C75.3929 46.9474 77.2697 48.4277 77.514 50.3609C75.6674 51.2715 74.4183 52.9811 74.4183 54.9403C74.4183 55.4193 74.8693 55.807 75.4251 55.807C75.9809 55.807 76.432 55.4193 76.432 54.9403C76.432 53.0088 78.2369 51.4361 80.4701 51.3986C82.7033 51.4361 84.5083 53.0088 84.5083 54.9397C84.5083 55.2991 84.4297 55.6712 84.2673 56.0785C84.229 56.1744 84.2109 56.275 84.2129 56.3761C84.2136 56.3998 84.215 56.4217 84.2176 56.4425C84.2136 56.4547 84.2109 56.4627 84.2109 56.4627C84.1317 56.7314 84.2069 57.0168 84.413 57.23C84.619 57.4432 84.9265 57.5588 85.2527 57.5409C85.3225 57.5368 85.3923 57.5293 85.5158 57.5143C87.7866 57.5143 89.6345 59.1049 89.6345 61.0595C89.6345 61.39 89.5654 61.7292 89.4184 62.1278C89.2821 62.4947 89.4439 62.8951 89.8151 63.11C91.4489 64.057 92.439 65.6112 92.5094 67.2943C92.5094 67.2966 92.5088 67.2989 92.5088 67.3012C92.5088 70.2074 89.7621 72.5722 86.3857 72.5722C83.0094 72.5722 80.262 70.2074 80.262 67.3012C80.262 66.8222 79.811 66.4345 79.2552 66.4345C78.6994 66.4345 78.2483 66.8222 78.2483 67.3012C78.2483 71.1636 81.8985 74.3055 86.3857 74.3055C87.8812 74.3055 89.2788 73.9502 90.4843 73.3418C91.7731 74.5494 92.4833 76.0938 92.4833 77.704Z" fill="black"/>
<path d="M57.0694 45.2143C53.9254 45.2143 51.3035 47.1441 50.7363 49.7354C50.4088 49.6863 50.0993 49.6626 49.7919 49.6626C49.765 49.6626 49.7389 49.6655 49.7113 49.666C49.6845 49.6655 49.6583 49.6626 49.6308 49.6626C49.5751 49.6626 49.5214 49.6689 49.4684 49.6764C46.2377 49.8226 43.6595 52.1239 43.6595 54.9405C43.6595 55.2375 43.6924 55.5356 43.7595 55.8395C40.8067 56.218 38.5339 58.4153 38.5339 61.0609C38.5339 61.381 38.5748 61.7068 38.6574 62.0466C36.7598 63.3714 35.6462 65.3618 35.6462 67.4857C35.6462 69.3109 36.496 71.0639 37.9989 72.3754C36.5041 73.8713 35.6858 75.749 35.6858 77.7048C35.6858 80.4024 37.1834 82.8637 39.7314 84.4191C39.4985 85.1147 39.4079 85.8191 39.4616 86.5216C39.5891 88.2058 40.4704 89.7468 41.9445 90.8601C43.4185 91.9741 45.3107 92.5235 47.2647 92.4161C47.5701 92.3987 47.8816 92.3606 48.2044 92.3011C49.6395 94.5163 52.3567 95.9104 55.3504 95.9104C59.8625 95.9104 63.5335 92.7506 63.5335 88.8668V50.78C63.5348 47.7109 60.6344 45.2143 57.0694 45.2143ZM61.5211 88.8656C61.5211 91.7938 58.7536 94.176 55.3517 94.176C52.8702 94.176 50.6397 92.9049 49.6704 90.9381C49.5086 90.6105 49.1381 90.41 48.7434 90.41C48.64 90.41 48.5347 90.4233 48.4313 90.4528C47.9453 90.5886 47.5332 90.6625 47.1338 90.6851C45.7114 90.7654 44.3428 90.3638 43.2735 89.5561C42.2036 88.7484 41.5639 87.6304 41.4712 86.4078C41.4202 85.7376 41.5551 85.0581 41.8726 84.3885C41.8773 84.3787 41.876 84.3677 41.88 84.3579C42.7808 82.5922 44.716 81.4961 46.9794 81.4961C47.5359 81.4961 47.9863 81.1079 47.9863 80.6295C47.9863 80.1511 47.5359 79.7628 46.9794 79.7628C44.3361 79.7628 41.9445 80.9224 40.5704 82.7898C38.7574 81.5539 37.6996 79.712 37.6996 77.7042C37.6996 76.094 38.4111 74.5496 39.6985 73.3426C40.904 73.951 42.3022 74.3063 43.7977 74.3063C48.285 74.3063 51.9352 71.1644 51.9352 67.302C51.9352 66.823 51.4848 66.4353 50.9283 66.4353C50.3718 66.4353 49.9214 66.823 49.9214 67.302C49.9214 70.2082 47.1747 72.573 43.7977 72.573C40.4207 72.573 37.674 70.2082 37.674 67.302C37.674 67.3008 37.6734 67.2997 37.6734 67.2985C37.7425 65.6143 38.7326 64.059 40.3671 63.1108C40.7382 62.8959 40.8993 62.4961 40.7638 62.1292C40.6161 61.7299 40.5476 61.3908 40.5476 61.0603C40.5476 59.1097 42.3875 57.5214 44.7059 57.5214C44.7106 57.5214 44.716 57.5214 44.7207 57.5214C44.7898 57.5295 44.859 57.537 44.9294 57.5411C45.255 57.5584 45.5658 57.4423 45.7712 57.2279C45.9773 57.013 46.0511 56.7264 45.9685 56.4572C45.9685 56.4566 45.9665 56.4491 45.9632 56.4393C45.9652 56.4191 45.9672 56.4006 45.9679 56.3844C45.9712 56.2804 45.9531 56.177 45.9135 56.0787C45.751 55.6703 45.6725 55.2976 45.6725 54.9394C45.6725 53.0085 47.4768 51.4352 49.7107 51.3982C51.9445 51.4358 53.7488 53.0085 53.7488 54.94C53.7488 55.4189 54.1992 55.8066 54.7557 55.8066C55.3121 55.8066 55.7625 55.4189 55.7625 54.94C55.7625 52.9807 54.5134 51.2711 52.6668 50.3605C52.9111 48.4273 54.7879 46.947 57.0688 46.947C59.5235 46.947 61.5204 48.6665 61.5204 50.7794L61.5211 88.8656Z" fill="black"/>
</svg>
