<svg width="166" height="176" viewBox="0 0 166 176" fill="none" xmlns="http://www.w3.org/2000/svg">
<path d="M8.576 135.936C9.68533 130.987 10.624 125.312 11.392 118.912C12.2453 112.512 12.9707 105.771 13.568 98.688C14.1653 91.6053 14.6773 84.5653 15.104 77.568C15.5307 70.5707 15.8293 64 16 57.856C16.1707 51.6267 16.256 46.208 16.256 41.6C16.256 39.296 16.256 37.248 16.256 35.456C16.256 33.5787 16.1707 32.0853 16 30.976C15.9147 29.952 16.1707 29.184 16.768 28.672C17.4507 28.0747 18.1333 27.776 18.816 27.776C20.096 27.776 20.736 28.3733 20.736 29.568C20.736 33.2373 20.608 38.0587 20.352 44.032C20.096 49.92 19.7547 56.4053 19.328 63.488C18.9867 70.4853 18.5173 77.6107 17.92 84.864C17.408 92.1173 16.8533 98.944 16.256 105.344C15.6587 111.659 15.0613 117.077 14.464 121.6C13.8667 126.208 13.2693 129.323 12.672 130.944C12.2453 132.309 11.6907 133.461 11.008 134.4C10.3253 135.424 9.77067 135.936 9.344 135.936C9.25867 135.936 9.088 135.936 8.832 135.936C8.66133 136.021 8.576 136.021 8.576 135.936ZM93.06 122.88C92.1213 122.88 91.652 122.368 91.652 121.344C91.652 120.832 91.8227 120.363 92.164 119.936C92.932 118.912 94.1267 117.163 95.748 114.688C97.3693 112.299 99.204 109.525 101.252 106.368C103.385 103.125 105.561 99.7973 107.78 96.384C109.999 92.8853 112.089 89.6 114.052 86.528C116.1 83.3707 117.849 80.64 119.3 78.336C120.751 76.032 121.775 74.496 122.372 73.728C121.775 72.448 120.751 70.528 119.3 67.968C117.935 65.3227 116.356 62.3787 114.564 59.136C112.772 55.8933 110.98 52.608 109.188 49.28C107.396 45.8667 105.775 42.752 104.324 39.936C102.873 37.0347 101.807 34.7307 101.124 33.024C100.783 32.256 100.612 31.4453 100.612 30.592C100.612 29.568 100.868 29.056 101.38 29.056C101.892 29.056 102.447 29.6107 103.044 30.72C104.324 33.024 105.988 35.7547 108.036 38.912C110.084 41.984 112.26 45.184 114.564 48.512C116.953 51.84 119.215 55.0827 121.348 58.24C123.481 61.312 125.231 64.0427 126.596 66.432C128.047 68.8213 128.9 70.6133 129.156 71.808C129.071 72.9173 128.303 74.7093 126.852 77.184C125.401 79.6587 123.524 82.56 121.22 85.888C118.916 89.216 116.399 92.7147 113.668 96.384C111.023 99.968 108.42 103.424 105.86 106.752C103.3 110.08 101.039 113.024 99.076 115.584C97.1133 118.229 95.7053 120.149 94.852 121.344C94.4253 122.368 93.828 122.88 93.06 122.88Z" fill="white"/>
<path d="M96.8587 72.4171C96.8587 70.138 95.714 68.0021 93.7634 66.5804C93.8482 66.2165 93.8903 65.8668 93.8903 65.5227C93.8903 62.6837 91.554 60.3258 88.5187 59.9197C88.5884 59.5936 88.6215 59.2737 88.6215 58.955C88.6215 55.9325 85.9705 53.4631 82.6495 53.3062C82.595 53.2981 82.5398 53.2913 82.4826 53.2913C82.455 53.2913 82.428 53.2944 82.3998 53.295C82.3722 53.2944 82.3452 53.2913 82.317 53.2913C82.0009 53.2913 81.6828 53.3167 81.3468 53.3694C80.7631 50.5887 78.0672 48.5179 74.8353 48.5179C71.1707 48.5179 68.1892 51.197 68.1892 54.4904V95.3596C68.1892 99.5278 71.9628 102.918 76.601 102.918C79.6784 102.918 82.4715 101.422 83.9467 99.0455C84.2773 99.1099 84.5946 99.1496 84.9134 99.1682C86.9165 99.2829 88.8671 98.6933 90.3824 97.4986C91.8976 96.3038 92.8043 94.6503 92.9354 92.8424C92.9899 92.0891 92.896 91.3333 92.6573 90.5868C95.2765 88.9184 96.8159 86.2766 96.8159 83.3818C96.8159 81.2831 95.9748 79.2681 94.4389 77.6629C95.9845 76.2567 96.8587 74.3757 96.8587 72.4171ZM94.7473 83.383C94.7473 85.5431 93.6557 87.5246 91.7838 88.8508C90.3982 86.8693 87.9405 85.6039 85.2791 85.6039C84.7078 85.6039 84.2441 86.0205 84.2441 86.5339C84.2441 87.0472 84.7078 87.4639 85.2791 87.4639C87.5844 87.4639 89.6841 88.7615 90.5107 90.6928C90.7936 91.3674 90.9192 92.05 90.8702 92.7227C90.775 94.0346 90.1174 95.2343 89.0175 96.1011C87.9177 96.9685 86.5053 97.3994 85.0487 97.3126C84.6388 97.2884 84.2151 97.209 83.7149 97.0633C83.2043 96.9133 82.6516 97.1402 82.4412 97.5841C81.4441 99.6946 79.1512 101.059 76.6003 101.059C73.1034 101.059 70.2585 98.5023 70.2585 95.3602V54.491C70.2585 52.2237 72.3113 50.3786 74.8346 50.3786C77.1792 50.3786 79.1085 51.967 79.3596 54.0415C77.4614 55.0186 76.1773 56.8532 76.1773 58.9556C76.1773 59.4696 76.641 59.8856 77.2123 59.8856C77.7837 59.8856 78.2473 59.4696 78.2473 58.9556C78.2473 56.883 80.1027 55.1953 82.3984 55.155C84.694 55.1953 86.5494 56.883 86.5494 58.955C86.5494 59.3407 86.4687 59.7399 86.3017 60.177C86.2624 60.28 86.2437 60.3878 86.2458 60.4963C86.2465 60.5218 86.2479 60.5453 86.2506 60.5676C86.2465 60.5807 86.2437 60.5893 86.2437 60.5893C86.1623 60.8776 86.2396 61.1839 86.4514 61.4127C86.6633 61.6415 86.9793 61.7655 87.3146 61.7463C87.3864 61.7419 87.4581 61.7339 87.5851 61.7177C89.9194 61.7177 91.8189 63.4246 91.8189 65.5221C91.8189 65.8767 91.7479 66.2406 91.5968 66.6684C91.4567 67.0621 91.623 67.4918 92.0046 67.7224C93.684 68.7386 94.7018 70.4064 94.7742 72.2125C94.7742 72.215 94.7735 72.2174 94.7735 72.2199C94.7735 75.3385 91.95 77.8762 88.4793 77.8762C85.0086 77.8762 82.1845 75.3385 82.1845 72.2199C82.1845 71.7059 81.7208 71.2899 81.1495 71.2899C80.5782 71.2899 80.1145 71.7059 80.1145 72.2199C80.1145 76.3646 83.8667 79.7362 88.4793 79.7362C90.0167 79.7362 91.4532 79.3549 92.6925 78.702C94.0173 79.9978 94.7473 81.6551 94.7473 83.383Z" fill="white"/>
<path d="M58.3436 48.5187C55.1116 48.5187 52.4165 50.5895 51.8334 53.3702C51.4967 53.3175 51.1786 53.2921 50.8626 53.2921C50.835 53.2921 50.8081 53.2952 50.7798 53.2958C50.7522 53.2952 50.7253 53.2921 50.697 53.2921C50.6397 53.2921 50.5845 53.2989 50.53 53.307C47.209 53.4639 44.5588 55.9333 44.5588 58.9558C44.5588 59.2745 44.5926 59.5944 44.6616 59.9205C41.6263 60.3266 39.2899 62.6845 39.2899 65.5235C39.2899 65.867 39.332 66.2166 39.4169 66.5812C37.4662 68.0029 36.3215 70.1388 36.3215 72.4179C36.3215 74.3765 37.1951 76.2575 38.74 77.6649C37.2034 79.2701 36.3622 81.2851 36.3622 83.3838C36.3622 86.2786 37.9016 88.9198 40.5209 90.5888C40.2814 91.3353 40.1883 92.0911 40.2435 92.845C40.3746 94.6523 41.2806 96.3059 42.7958 97.5006C44.311 98.696 46.2562 99.2856 48.2647 99.1703C48.5787 99.1517 48.8989 99.1107 49.2307 99.0469C50.706 101.424 53.4991 102.92 56.5765 102.92C61.2147 102.92 64.9883 99.5292 64.9883 95.3616V54.4912C64.9897 51.1978 62.0082 48.5187 58.3436 48.5187ZM62.9197 95.3604C62.9197 98.5025 60.0748 101.059 56.5779 101.059C54.0269 101.059 51.7341 99.6948 50.7377 97.5843C50.5714 97.2328 50.1905 97.0176 49.7848 97.0176C49.6786 97.0176 49.5702 97.0319 49.464 97.0635C48.9644 97.2092 48.5407 97.2886 48.1302 97.3127C46.6681 97.3989 45.2612 96.968 44.162 96.1013C43.0621 95.2345 42.4046 94.0348 42.3094 92.7229C42.2569 92.0037 42.3956 91.2746 42.722 90.556C42.7268 90.5454 42.7254 90.5337 42.7296 90.5231C43.6555 88.6284 45.6448 87.4523 47.9715 87.4523C48.5435 87.4523 49.0065 87.0356 49.0065 86.5223C49.0065 86.0089 48.5435 85.5923 47.9715 85.5923C45.2543 85.5923 42.7958 86.8366 41.3834 88.8404C39.5197 87.5143 38.4322 85.5377 38.4322 83.3832C38.4322 81.6553 39.1636 79.998 40.4871 78.7028C41.7263 79.3557 43.1636 79.737 44.7009 79.737C49.3135 79.737 53.0658 76.3654 53.0658 72.2207C53.0658 71.7067 52.6028 71.2907 52.0308 71.2907C51.4588 71.2907 50.9958 71.7067 50.9958 72.2207C50.9958 75.3393 48.1723 77.877 44.7009 77.877C41.2295 77.877 38.406 75.3393 38.406 72.2207C38.406 72.2195 38.4053 72.2182 38.4053 72.217C38.4764 70.4097 39.4942 68.7407 41.1743 67.7232C41.5559 67.4926 41.7215 67.0636 41.5821 66.6699C41.4303 66.2414 41.3599 65.8775 41.3599 65.5229C41.3599 63.4297 43.2512 61.7254 45.6345 61.7254C45.6393 61.7254 45.6448 61.7254 45.6496 61.7254C45.7207 61.734 45.7918 61.7421 45.8642 61.7464C46.1989 61.765 46.5184 61.6404 46.7295 61.4104C46.9413 61.1798 47.0172 60.8722 46.9324 60.5833C46.9324 60.5827 46.9303 60.5746 46.9268 60.5641C46.9289 60.5424 46.931 60.5226 46.9317 60.5052C46.9351 60.3936 46.9165 60.2826 46.8758 60.1772C46.7088 59.7389 46.6281 59.339 46.6281 58.9546C46.6281 56.8825 48.4828 55.1943 50.7791 55.1546C53.0754 55.1949 54.9301 56.8825 54.9301 58.9552C54.9301 59.4692 55.3931 59.8852 55.9651 59.8852C56.5372 59.8852 57.0001 59.4692 57.0001 58.9552C57.0001 56.8528 55.7161 55.0182 53.8179 54.0411C54.069 51.9666 55.9983 50.3781 58.3429 50.3781C60.8662 50.3781 62.919 52.2232 62.919 54.4906L62.9197 95.3604Z" fill="white"/>
</svg>
