<svg width="158" height="137" viewBox="0 0 158 137" fill="none" xmlns="http://www.w3.org/2000/svg">
<path d="M8.576 135.936C9.68533 130.987 10.624 125.312 11.392 118.912C12.2453 112.512 12.9707 105.771 13.568 98.688C14.1653 91.6053 14.6773 84.5653 15.104 77.568C15.5307 70.5707 15.8293 64 16 57.856C16.1707 51.6267 16.256 46.208 16.256 41.6C16.256 39.296 16.256 37.248 16.256 35.456C16.256 33.5787 16.1707 32.0853 16 30.976C15.9147 29.952 16.1707 29.184 16.768 28.672C17.4507 28.0747 18.1333 27.776 18.816 27.776C20.096 27.776 20.736 28.3733 20.736 29.568C20.736 33.2373 20.608 38.0587 20.352 44.032C20.096 49.92 19.7547 56.4053 19.328 63.488C18.9867 70.4853 18.5173 77.6107 17.92 84.864C17.408 92.1173 16.8533 98.944 16.256 105.344C15.6587 111.659 15.0613 117.077 14.464 121.6C13.8667 126.208 13.2693 129.323 12.672 130.944C12.2453 132.309 11.6907 133.461 11.008 134.4C10.3253 135.424 9.77067 135.936 9.344 135.936C9.25867 135.936 9.088 135.936 8.832 135.936C8.66133 136.021 8.576 136.021 8.576 135.936ZM93.06 122.88C92.1213 122.88 91.652 122.368 91.652 121.344C91.652 120.832 91.8227 120.363 92.164 119.936C92.932 118.912 94.1267 117.163 95.748 114.688C97.3693 112.299 99.204 109.525 101.252 106.368C103.385 103.125 105.561 99.7973 107.78 96.384C109.999 92.8853 112.089 89.6 114.052 86.528C116.1 83.3707 117.849 80.64 119.3 78.336C120.751 76.032 121.775 74.496 122.372 73.728C121.775 72.448 120.751 70.528 119.3 67.968C117.935 65.3227 116.356 62.3787 114.564 59.136C112.772 55.8933 110.98 52.608 109.188 49.28C107.396 45.8667 105.775 42.752 104.324 39.936C102.873 37.0347 101.807 34.7307 101.124 33.024C100.783 32.256 100.612 31.4453 100.612 30.592C100.612 29.568 100.868 29.056 101.38 29.056C101.892 29.056 102.447 29.6107 103.044 30.72C104.324 33.024 105.988 35.7547 108.036 38.912C110.084 41.984 112.26 45.184 114.564 48.512C116.953 51.84 119.215 55.0827 121.348 58.24C123.481 61.312 125.231 64.0427 126.596 66.432C128.047 68.8213 128.9 70.6133 129.156 71.808C129.071 72.9173 128.303 74.7093 126.852 77.184C125.401 79.6587 123.524 82.56 121.22 85.888C118.916 89.216 116.399 92.7147 113.668 96.384C111.023 99.968 108.42 103.424 105.86 106.752C103.3 110.08 101.039 113.024 99.076 115.584C97.1133 118.229 95.7053 120.149 94.852 121.344C94.4253 122.368 93.828 122.88 93.06 122.88Z" fill="white"/>
<path d="M78.2 53H45.8C39.8353 53 35 57.6761 35 63.4445V89.5555C35 95.324 39.8353 100 45.8 100H78.2C84.1646 100 89 95.324 89 89.5555V63.4445C89 57.6761 84.1646 53 78.2 53Z" stroke="white" stroke-width="5" stroke-linecap="round" stroke-linejoin="round"/>
<path d="M35 68.7974H44.0992C46.2474 68.7974 48.3075 69.6226 49.8266 71.0916C51.3456 72.5606 52.1992 74.5531 52.1992 76.6308C52.1992 78.7082 51.3456 80.7007 49.8266 82.1697C48.3075 83.6388 46.2474 84.4641 44.0992 84.4641H35" stroke="white" stroke-width="5" stroke-linecap="round" stroke-linejoin="round"/>
</svg>
